<svg role="img" viewBox="0 0 500 500" xmlns="http://www.w3.org/2000/svg"><title>Business</title>
  <path d="M 30.00,468.02
           C 33.30,468.02 35.97,470.87 35.97,474.38
             35.97,474.38 35.97,481.61 35.97,481.61
             35.97,485.13 33.30,487.98 30.00,487.98
             26.70,487.98 24.03,485.13 24.03,481.61
             24.03,481.61 24.03,474.38 24.03,474.38
             24.03,470.87 26.70,468.02 30.00,468.02
             30.00,468.02 30.00,468.02 30.00,468.02 Z
           M 30.14,465.12
           C 28.09,465.12 26.19,464.06 25.06,462.29
             9.24,437.60 0.82,408.56 0.84,378.87
             0.84,378.87 0.84,35.44 0.84,35.44
             0.84,24.52 6.42,14.44 15.49,8.98
             24.55,3.52 35.72,3.52 44.78,8.98
             53.85,14.44 59.43,24.52 59.43,35.44
             59.43,35.44 59.43,60.79 59.43,60.79
             66.85,56.43 75.93,56.49 83.29,60.98
             90.64,65.46 95.16,73.68 95.16,82.56
             95.16,82.56 95.16,241.46 95.16,241.46
             95.16,244.97 92.42,247.82 89.05,247.82
             85.68,247.82 82.95,244.97 82.95,241.46
             82.95,241.46 82.95,82.56 82.95,82.56
             82.95,75.79 77.68,70.30 71.19,70.30
             64.69,70.30 59.43,75.79 59.43,82.56
             59.43,82.56 59.43,378.86 59.43,378.86
             59.45,408.55 51.03,437.59 35.21,462.28
             34.08,464.05 32.18,465.11 30.13,465.11
             30.13,465.11 30.14,465.12 30.14,465.12 Z
           M 13.05,290.31
           C 13.05,290.31 47.22,290.31 47.22,290.31
             47.22,290.31 47.22,71.32 47.22,71.32
             47.22,71.32 13.05,71.32 13.05,71.32
             13.05,71.32 13.05,290.31 13.05,290.31 Z
           M 30.13,17.61
           C 25.60,17.61 21.26,19.49 18.06,22.83
             14.85,26.18 13.05,30.71 13.05,35.43
             13.05,35.43 13.05,58.59 13.05,58.59
             13.05,58.59 47.22,58.59 47.22,58.59
             47.22,58.59 47.22,35.43 47.22,35.43
             47.22,30.71 45.42,26.18 42.21,22.83
             39.01,19.49 34.66,17.61 30.13,17.61
             30.13,17.61 30.13,17.61 30.13,17.61 Z
           M 13.05,378.86
           C 13.02,402.60 18.91,425.95 30.13,446.61
             41.36,425.95 47.25,402.60 47.22,378.86
             47.22,378.86 47.22,303.04 47.22,303.04
             47.22,303.04 13.05,303.04 13.05,303.04
             13.05,303.04 13.05,378.86 13.05,378.86 Z
           M 266.07,348.00
           C 266.07,351.30 263.37,353.97 260.03,353.97
             260.03,353.97 241.97,353.97 241.97,353.97
             238.64,353.97 235.93,351.30 235.93,348.00
             235.93,344.71 238.64,342.03 241.97,342.03
             241.97,342.03 260.03,342.03 260.03,342.03
             263.37,342.03 266.07,344.71 266.07,348.00 Z
           M 277.97,317.00
           C 277.97,320.30 275.27,322.97 271.93,322.97
             271.93,322.97 243.07,322.97 243.07,322.97
             239.74,322.97 237.04,320.30 237.04,317.00
             237.04,313.70 239.74,311.03 243.07,311.03
             243.07,311.03 271.93,311.03 271.93,311.03
             275.27,311.03 277.97,313.70 277.97,317.00 Z
           M 195.88,311.03
           C 197.50,311.03 199.06,311.69 200.20,312.85
             201.35,314.02 201.99,315.61 201.99,317.27
             201.99,317.27 201.99,349.73 201.99,349.73
             201.99,353.17 199.26,355.96 195.89,355.96
             195.89,355.96 164.10,355.96 164.10,355.96
             160.73,355.96 158.00,353.17 158.00,349.73
             158.00,349.73 158.00,349.73 158.00,349.73
             158.00,349.73 158.00,317.27 158.00,317.27
             158.00,313.82 160.73,311.03 164.10,311.03
             164.10,311.03 195.88,311.03 195.88,311.03
             195.88,311.03 195.88,311.03 195.88,311.03 Z
           M 189.78,323.50
           C 189.78,323.50 170.21,323.50 170.21,323.50
             170.21,323.50 170.21,343.50 170.21,343.50
             170.21,343.50 189.78,343.50 189.78,343.50
             189.78,343.50 189.78,323.50 189.78,323.50 Z
           M 281.08,250.00
           C 281.08,253.30 278.32,255.97 274.91,255.97
             274.91,255.97 243.08,255.97 243.08,255.97
             239.67,255.97 236.91,253.30 236.91,250.00
             236.91,246.71 239.67,244.03 243.08,244.03
             243.08,244.03 274.91,244.03 274.91,244.03
             278.32,244.03 281.08,246.71 281.08,250.00 Z
           M 447.93,303.86
           C 474.99,319.53 493.50,347.70 497.89,379.92
             502.29,412.14 492.07,444.67 470.28,467.74
             448.51,490.82 417.71,501.76 387.12,497.28
             356.54,492.80 329.73,473.43 314.74,444.97
             314.74,444.97 152.36,444.97 152.36,444.97
             143.54,444.96 135.09,441.27 128.85,434.69
             122.62,428.12 119.11,419.20 119.10,409.91
             119.10,409.91 119.10,36.81 119.10,36.81
             119.11,27.51 122.62,18.60 128.85,12.03
             135.09,5.45 143.54,1.75 152.36,1.74
             152.36,1.74 346.62,1.74 346.62,1.74
             346.82,1.74 347.02,1.75 347.22,1.78
             347.22,1.78 347.21,1.77 347.21,1.77
             347.36,1.78 347.51,1.81 347.66,1.84
             347.71,1.84 347.75,1.85 347.80,1.86
             347.97,1.90 348.14,1.94 348.31,2.00
             348.33,2.00 348.36,2.00 348.37,2.01
             348.54,2.07 348.71,2.13 348.87,2.20
             348.89,2.21 348.91,2.22 348.93,2.22
             349.08,2.29 349.23,2.37 349.37,2.45
             349.40,2.46 349.43,2.48 349.46,2.49
             349.59,2.57 349.72,2.65 349.84,2.73
             349.88,2.76 349.93,2.79 349.97,2.82
             350.08,2.90 350.19,2.99 350.30,3.08
             350.35,3.11 350.40,3.15 350.45,3.19
             350.57,3.30 350.70,3.42 350.81,3.54
             350.83,3.56 350.86,3.58 350.88,3.61
             350.88,3.61 446.15,104.05 446.15,104.05
             446.17,104.07 446.19,104.10 446.21,104.13
             446.33,104.25 446.44,104.38 446.54,104.51
             446.58,104.56 446.62,104.61 446.65,104.66
             446.73,104.78 446.82,104.89 446.90,105.01
             446.92,105.05 446.95,105.10 446.97,105.14
             447.06,105.28 447.13,105.41 447.20,105.55
             447.22,105.58 447.23,105.61 447.25,105.64
             447.32,105.79 447.40,105.95 447.46,106.11
             447.47,106.13 447.47,106.15 447.48,106.17
             447.55,106.34 447.61,106.52 447.66,106.69
             447.66,106.72 447.67,106.74 447.68,106.76
             447.73,106.94 447.77,107.12 447.80,107.30
             447.82,107.35 447.82,107.40 447.83,107.45
             447.85,107.60 447.88,107.76 447.89,107.92
             447.91,108.13 447.92,108.34 447.92,108.55
             447.92,108.55 447.92,303.85 447.92,303.85
             447.92,303.85 447.93,303.86 447.93,303.86 Z
           M 352.65,79.86
           C 352.66,85.78 354.89,91.46 358.86,95.64
             362.83,99.83 368.22,102.19 373.84,102.19
             373.84,102.19 427.31,102.19 427.31,102.19
             427.31,102.19 352.65,23.48 352.65,23.48
             352.65,23.48 352.65,79.86 352.65,79.86 Z
           M 309.04,432.25
           C 301.69,412.34 300.36,390.53 305.22,369.79
             305.22,369.79 294.18,365.91 294.18,365.91
             291.71,365.05 290.05,362.61 290.05,359.87
             290.05,338.65 298.05,318.29 312.28,303.28
             326.52,288.27 345.82,279.84 365.96,279.83
             368.55,279.83 370.86,281.58 371.68,284.18
             371.68,284.18 371.68,284.18 371.68,284.18
             371.68,284.18 374.99,294.64 374.99,294.64
             395.09,288.90 416.41,290.06 435.85,297.94
             435.85,297.94 435.85,114.93 435.85,114.93
             435.85,114.93 373.84,114.93 373.84,114.93
             365.03,114.91 356.57,111.22 350.33,104.64
             344.10,98.07 340.59,89.16 340.58,79.86
             340.58,79.86 340.58,14.48 340.58,14.48
             340.58,14.48 152.36,14.48 152.36,14.48
             146.75,14.49 141.36,16.84 137.39,21.03
             133.42,25.21 131.19,30.89 131.18,36.81
             131.18,36.81 131.18,409.91 131.18,409.91
             131.19,415.83 133.42,421.51 137.39,425.70
             141.36,429.88 146.74,432.24 152.36,432.24
             152.36,432.24 309.04,432.25 309.04,432.25 Z
           M 391.35,386.63
           C 391.35,386.63 361.65,292.71 361.65,292.71
             346.24,293.81 331.74,300.76 320.82,312.27
             309.90,323.79 303.31,339.08 302.27,355.33
             302.27,355.33 391.35,386.63 391.35,386.63 Z
           M 400.62,485.54
           C 425.40,485.54 448.98,474.29 465.34,454.68
             481.71,435.06 489.27,408.97 486.11,383.06
             482.95,357.15 469.37,333.93 448.83,319.32
             428.29,304.71 402.79,300.12 378.81,306.72
             378.81,306.72 378.82,306.72 378.82,306.72
             378.82,306.72 406.62,394.68 406.62,394.68
             407.35,396.97 406.78,399.49 405.17,401.19
             403.55,402.90 401.16,403.49 398.99,402.73
             398.99,402.73 316.72,373.82 316.72,373.82
             310.69,400.85 316.70,429.30 333.05,451.07
             349.40,472.84 374.29,485.53 400.62,485.54
             400.62,485.54 400.62,485.54 400.62,485.54 Z
           M 203.58,214.83
           C 205.95,212.32 209.77,212.32 212.12,214.83
             214.48,217.34 214.48,221.41 212.12,223.92
             212.12,223.92 184.66,253.18 184.66,253.18
             182.39,255.60 178.73,255.70 176.35,253.41
             176.35,253.41 163.06,240.65 163.06,240.65
             160.63,238.26 160.45,234.23 162.67,231.61
             164.88,228.99 168.67,228.76 171.15,231.10
             171.15,231.10 171.15,231.10 171.15,231.10
             171.15,231.10 180.18,239.77 180.18,239.77
             180.18,239.77 203.59,214.83 203.59,214.83
             203.59,214.83 203.58,214.83 203.58,214.83 Z
           M 203.57,114.84
           C 204.70,113.62 206.24,112.93 207.85,112.92
             209.46,112.91 211.00,113.59 212.14,114.80
             213.28,116.02 213.92,117.66 213.91,119.38
             213.90,121.09 213.26,122.73 212.11,123.93
             212.11,123.93 184.64,153.19 184.64,153.19
             182.37,155.61 178.72,155.71 176.33,153.42
             176.33,153.42 163.05,140.66 163.05,140.66
             160.61,138.28 160.43,134.24 162.65,131.62
             164.86,129.00 168.65,128.77 171.13,131.11
             171.13,131.11 171.13,131.11 171.13,131.11
             171.13,131.11 180.16,139.78 180.16,139.78
             180.16,139.78 203.57,114.84 203.57,114.84
             203.57,114.84 203.57,114.84 203.57,114.84 Z
           M 239.05,218.00
           C 239.05,214.70 241.75,212.03 245.09,212.03
             245.09,212.03 372.91,212.03 372.91,212.03
             376.25,212.03 378.95,214.70 378.95,218.00
             378.95,221.30 376.25,223.97 372.91,223.97
             372.91,223.97 245.09,223.97 245.09,223.97
             241.75,223.97 239.05,221.30 239.05,218.00 Z
           M 236.92,153.00
           C 236.92,149.70 239.68,147.03 243.09,147.03
             243.09,147.03 274.92,147.03 274.92,147.03
             278.33,147.03 281.09,149.70 281.09,153.00
             281.09,156.30 278.33,158.97 274.92,158.97
             274.92,158.97 243.09,158.97 243.09,158.97
             239.68,158.97 236.92,156.30 236.92,153.00 Z
           M 237.25,122.00
           C 237.25,118.70 239.92,116.03 243.22,116.03
             243.22,116.03 330.78,116.03 330.78,116.03
             334.08,116.03 336.75,118.70 336.75,122.00
             336.75,125.30 334.08,127.97 330.78,127.97
             330.78,127.97 243.22,127.97 243.22,127.97
             239.92,127.97 237.25,125.30 237.25,122.00 Z" />
</svg>
