<svg role="img" viewBox="0 0 500 500" xmlns="http://www.w3.org/2000/svg"><title>Communication</title>
  <path d="M 57.91,329.64
           C 57.91,299.33 82.85,274.76 113.50,274.76
             144.15,274.76 169.09,299.33 169.09,329.64
             169.09,359.46 144.75,394.24 113.50,394.24
             82.15,394.24 57.91,359.46 57.91,329.64
             57.91,329.64 57.91,329.64 57.91,329.64 Z
           M 166.72,389.96
           C 202.23,408.88 226.46,446.23 226.46,489.13
             226.46,494.68 222.00,499.04 216.55,499.04
             216.55,499.04 11.46,499.04 11.46,499.04
             6.01,499.04 1.55,494.68 1.55,489.13
             1.55,446.23 25.78,408.88 61.28,389.96
             74.58,405.63 92.97,416.41 114.00,416.41
             135.04,416.41 153.43,405.63 166.73,389.96
             166.73,389.96 166.72,389.96 166.72,389.96 Z
           M 329.96,55.69
           C 329.96,25.38 354.90,0.70 385.44,0.70
             416.09,0.70 441.03,25.38 441.03,55.69
             441.03,85.51 416.79,120.29 385.44,120.29
             354.20,120.29 329.96,85.51 329.96,55.69 Z
           M 438.67,114.97
           C 474.17,133.88 498.40,171.23 498.40,214.13
             498.40,219.68 493.94,224.04 488.49,224.04
             488.49,224.04 283.51,224.05 283.51,224.05
             277.96,224.05 273.60,219.69 273.60,214.14
             273.60,171.23 297.83,133.88 333.30,114.96
             346.58,130.63 364.94,141.42 385.95,141.42
             406.98,141.42 425.37,130.63 438.67,114.96
             438.67,114.96 438.67,114.97 438.67,114.97 Z
           M 447.67,252.24
           C 447.67,360.55 359.55,448.67 251.24,448.67
             245.76,448.67 241.33,444.23 241.33,438.76
             241.33,433.29 245.76,428.85 251.24,428.85
             348.62,428.85 427.85,349.63 427.85,252.24
             427.85,246.77 432.28,242.33 437.76,242.33
             443.24,242.33 447.67,246.77 447.67,252.24 Z
           M 62.24,260.67
           C 56.76,260.67 52.33,256.23 52.33,250.76
             52.33,142.45 140.45,54.33 248.76,54.33
             254.24,54.33 258.67,58.77 258.67,64.24
             258.67,69.71 254.24,74.15 248.76,74.15
             151.38,74.15 72.15,153.37 72.15,250.76
             72.15,256.23 67.72,260.67 62.24,260.67
             62.24,260.67 62.24,260.67 62.24,260.67 Z" />
</svg>
