<svg id="Capa_1" data-name="Capa 1" xmlns="http://www.w3.org/2000/svg" viewBox="20 12 192 42">
  <defs><style>.cls-1{fill:#ffe521;}</style></defs>
  <title>Laboratoria_logo_tagline</title>
  <path d="M38.54,43V20.77h4V39.4h8V43Z"/>
  <path d="M59,33.22c2.71-.26,3.67-.61,3.67-1.85,0-1-.89-1.76-2.68-1.76a5.35,5.35,0,0,0-4.31,2.1l-2.36-2a7.61,7.61,0,0,1,6.6-3.28c4,0,6.48,1.91,6.48,5.2V40h0V43.3h-3V41.48c-1.12,1.31-2.94,2-5.46,2-3.54,0-5.93-1.95-5.93-4.88C52,35.29,54.25,33.63,59,33.22Zm-.45,7c2.55,0,4.12-1.15,4.12-3.19V35.22a1.94,1.94,0,0,1-.8.48,10.87,10.87,0,0,1-2.74.48c-2.23.25-3.35,1-3.35,2.07S56.8,40.2,58.56,40.2Z"/>
  <path d="M69,43V20.77h3.83v8.49c.54-1.56,2.49-2.68,5.14-2.68A7.53,7.53,0,0,1,83.68,29,8.15,8.15,0,0,1,86,35a8.29,8.29,0,0,1-2.33,6A7.62,7.62,0,0,1,78,43.36c-2.65,0-4.59-1.12-5.14-2.68V43Zm11.84-4.53a5.17,5.17,0,0,0,0-7,4.49,4.49,0,0,0-3.38-1.4A4.9,4.9,0,0,0,74,31.46a5.09,5.09,0,0,0,0,7,4.9,4.9,0,0,0,3.51,1.4A4.49,4.49,0,0,0,80.84,38.48Z"/>
  <path d="M87.74,35a8.13,8.13,0,0,1,2.55-6.06,9.11,9.11,0,0,1,12.45,0,8.48,8.48,0,0,1,0,12.13,9.11,9.11,0,0,1-12.45,0A8.13,8.13,0,0,1,87.74,35Zm12.31,3.61A5,5,0,0,0,101.49,35a4.82,4.82,0,0,0-1.44-3.57,5,5,0,0,0-7.11,0A4.93,4.93,0,0,0,91.53,35a5.07,5.07,0,0,0,1.4,3.61,5.13,5.13,0,0,0,7.11,0Z"/>
  <path d="M107,43V26.93h3.8v2.39a5,5,0,0,1,4.79-2.71,5.7,5.7,0,0,1,1.15.1v3.7a8.14,8.14,0,0,0-1.59-.16,4,4,0,0,0-4.34,4.31V43Z"/>
  <path d="M133.64,30.4h0V26.93h0V20.77h3.83v6.16H141V30.4h-3.54v7.18c0,1.75.61,2.39,2,2.39a6,6,0,0,0,1.34-.13v3.41a9,9,0,0,1-2,.19c-3.48,0-5.2-1.82-5.2-5.46Z"/>
  <path d="M142.65,35a8.12,8.12,0,0,1,2.55-6.06,9.11,9.11,0,0,1,12.44,0,8.48,8.48,0,0,1,0,12.13,9.11,9.11,0,0,1-12.44,0A8.12,8.12,0,0,1,142.65,35ZM155,38.57A5,5,0,0,0,156.41,35,4.83,4.83,0,0,0,155,31.39a5,5,0,0,0-7.12,0,4.93,4.93,0,0,0-1.4,3.57,5.06,5.06,0,0,0,1.4,3.61,5.13,5.13,0,0,0,7.12,0Z"/>
  <path d="M161.85,43V26.93h3.8v2.39a5,5,0,0,1,4.79-2.71,5.63,5.63,0,0,1,1.15.1v3.7a8.07,8.07,0,0,0-1.59-.16,4,4,0,0,0-4.34,4.31V43Z"/>
  <path d="M173.23,22.78a2.28,2.28,0,1,1,2.3,2.27A2.26,2.26,0,0,1,173.23,22.78ZM173.62,43V26.93h3.83V43Z"/>
  <path d="M123.87,33.22c2.71-.26,3.67-.61,3.67-1.85,0-1-.89-1.76-2.68-1.76a5.35,5.35,0,0,0-4.31,2.1l-2.36-2a7.62,7.62,0,0,1,6.6-3.28c4,0,6.48,1.91,6.48,5.2V40h0V43.3h-3V41.48c-1.12,1.31-2.93,2-5.46,2-3.54,0-5.93-1.95-5.93-4.88C116.92,35.29,119.12,33.63,123.87,33.22Zm-.45,7c2.55,0,4.12-1.15,4.12-3.19V35.22a1.94,1.94,0,0,1-.8.48,10.82,10.82,0,0,1-2.74.48c-2.24.25-3.35,1-3.35,2.07S121.67,40.2,123.43,40.2Z"/>
  <path d="M186.06,33.22c2.71-.26,3.67-.61,3.67-1.85,0-1-.89-1.76-2.68-1.76a5.34,5.34,0,0,0-4.31,2.1l-2.36-2A7.62,7.62,0,0,1,187,26.42c4,0,6.48,1.91,6.48,5.2V40h0V43.3h-3V41.48c-1.12,1.31-2.94,2-5.46,2-3.54,0-5.94-1.95-5.94-4.88C179.1,35.29,181.31,33.63,186.06,33.22Zm-.45,7c2.55,0,4.12-1.15,4.12-3.19V35.22a1.93,1.93,0,0,1-.8.48,10.83,10.83,0,0,1-2.74.48c-2.23.25-3.35,1-3.35,2.07S183.86,40.2,185.61,40.2Z"/>
  <polygon class="cls-1" points="25.88 34.93 32.23 28.58 32.23 28.58 30.11 26.46 21.64 34.93 30.11 43.4 32.23 41.28 25.88 34.93"/>
  <polygon class="cls-1" points="206.12 34.93 199.77 28.58 199.77 28.58 201.89 26.46 210.36 34.93 201.89 43.4 199.77 41.28 206.12 34.93"/>
</svg>