<svg role="img" viewBox="0 0 500 500" xmlns="http://www.w3.org/2000/svg"><title>Planning</title>
  <path d="M 259.19,271.73
           C 252.44,271.79 246.00,268.80 241.54,263.55
             237.09,258.30 235.07,251.31 236.01,244.40
             236.95,237.49 240.75,231.34 246.43,227.56
             252.10,223.77 259.09,222.73 265.57,224.70
             265.57,224.70 306.52,182.96 306.52,182.96
             311.02,179.80 317.06,180.39 320.90,184.37
             324.75,188.34 325.32,194.58 322.27,199.23
             322.27,199.23 281.32,241.54 281.32,241.54
             283.37,248.80 281.96,256.63 277.54,262.64
             273.12,268.66 266.19,272.16 258.88,272.06
             258.88,272.06 259.19,271.73 259.19,271.73 Z
           M 258.41,247.56
           C 258.06,247.56 257.77,247.86 257.77,248.22
             257.77,248.58 258.06,248.87 258.41,248.87
             258.54,249.01 258.72,249.09 258.92,249.09
             259.11,249.09 259.30,249.01 259.43,248.87
             259.62,248.65 259.66,248.33 259.54,248.07
             259.42,247.80 259.16,247.64 258.88,247.65
             258.73,247.59 258.56,247.59 258.41,247.65
             258.41,247.65 258.41,247.56 258.41,247.56 Z
           M 132.89,248.92
           C 132.93,214.10 146.20,180.72 169.78,156.12
             193.37,131.52 225.33,117.72 258.65,117.74
             291.96,117.78 323.89,131.65 347.42,156.29
             370.95,180.93 384.14,214.32 384.11,249.13
             384.07,283.94 370.81,317.31 347.24,341.90
             323.66,366.48 291.71,380.28 258.39,380.25
             225.08,380.22 193.15,366.37 169.61,341.74
             146.08,317.11 132.86,283.72 132.89,248.92
             132.89,248.92 132.89,248.92 132.89,248.92 Z
           M 258.65,141.01
           C 231.29,141.07 205.07,152.47 185.73,172.69
             166.39,192.91 155.51,220.32 155.47,248.91
             155.47,277.54 166.35,304.99 185.72,325.22
             205.09,345.46 231.36,356.82 258.76,356.82
             286.15,356.81 312.41,345.43 331.77,325.18
             351.13,304.94 362.01,277.48 361.99,248.86
             361.98,220.24 351.08,192.79 331.70,172.57
             312.32,152.34 286.04,140.99 258.65,141.01
             258.65,141.01 258.65,141.01 258.65,141.01 Z
           M 487.56,443.86
           C 493.71,443.86 498.69,449.07 498.69,455.49
             498.69,461.92 493.71,467.13 487.56,467.13
             487.56,467.13 39.85,467.13 39.85,467.13
             39.85,467.13 52.47,479.01 52.47,479.01
             56.98,483.51 57.16,490.98 52.86,495.70
             48.56,500.41 41.41,500.60 36.89,496.10
             36.89,496.10 3.72,463.72 3.72,463.72
             3.72,463.72 2.86,462.74 2.86,462.74
             2.86,462.74 2.32,462.00 2.32,462.00
             1.93,461.44 1.60,460.84 1.30,460.22
             -0.74,455.59 0.40,450.11 4.11,446.79
             4.11,446.79 36.89,414.81 36.89,414.81
             41.41,410.43 48.47,410.70 52.66,415.42
             56.86,420.14 56.60,427.51 52.08,431.90
             52.08,431.90 52.08,431.90 52.08,431.90
             52.08,431.90 39.93,443.78 39.93,443.78
             39.93,443.78 254.01,443.78 254.01,443.78
             297.61,443.84 339.91,428.29 373.85,399.71
             407.80,371.13 431.34,331.25 440.55,286.72
             449.76,242.20 444.09,195.72 424.47,155.04
             404.85,114.36 372.48,81.94 332.75,63.19
             332.75,63.19 352.92,100.05 352.92,100.05
             354.89,103.65 354.88,108.07 352.89,111.66
             350.90,115.25 347.23,117.46 343.27,117.47
             339.25,117.46 335.55,115.23 333.53,111.61
             333.53,111.61 299.11,49.11 299.11,49.11
             297.60,46.29 297.27,42.95 298.20,39.86
             299.13,36.78 301.23,34.24 304.01,32.84
             304.01,32.84 366.31,1.83 366.31,1.83
             371.86,-1.00 378.56,1.40 381.27,7.20
             383.98,13.00 381.67,19.99 376.13,22.83
             376.13,22.83 376.13,22.83 376.13,22.83
             376.13,22.83 339.76,40.97 339.76,40.97
             389.46,63.76 428.94,105.53 450.15,157.73
             471.35,209.94 472.66,268.64 453.83,321.82
             434.99,375.01 397.42,418.66 348.80,443.86
             348.80,443.86 487.58,443.86 487.58,443.86
             487.58,443.86 487.56,443.86 487.56,443.86 Z
           M 89.90,379.94
           C 86.32,379.98 82.95,378.18 80.86,375.14
             52.41,334.30 38.10,284.55 40.30,234.09
             42.51,183.62 61.09,135.44 92.99,97.48
             124.89,59.52 168.21,34.04 215.82,25.23
             221.89,24.11 227.67,28.34 228.75,34.67
             229.82,41.01 225.78,47.06 219.71,48.18
             177.11,56.11 138.36,78.95 109.82,112.93
             81.29,146.91 64.65,190.03 62.66,235.20
             60.66,280.36 73.43,324.89 98.85,361.48
             100.60,363.97 101.32,367.09 100.87,370.14
             100.42,373.20 98.82,375.94 96.44,377.76
             94.52,379.17 92.24,379.94 89.89,379.95
             89.89,379.95 89.90,379.94 89.90,379.94 Z" />
</svg>
