<svg role="img" viewBox="0 0 500 500" xmlns="http://www.w3.org/2000/svg"><title>Product Design</title>
  <path d="M 364.39,219.06
           C 364.39,221.50 366.37,223.48 368.81,223.48
             370.59,223.48 372.20,222.41 372.89,220.76
             373.57,219.10 373.19,217.20 371.93,215.94
             370.67,214.68 368.77,214.30 367.11,214.98
             365.46,215.67 364.39,217.28 364.39,219.06
             364.39,219.06 364.39,219.06 364.39,219.06 Z
           M 496.95,73.24
           C 496.95,68.56 495.08,64.07 491.77,60.75
             488.45,57.44 483.96,55.57 479.27,55.57
             479.27,55.57 19.72,55.57 19.72,55.57
             15.04,55.57 10.55,57.44 7.23,60.75
             3.92,64.07 2.05,68.56 2.05,73.24
             2.05,73.24 2.05,126.27 2.05,126.27
             2.05,126.27 496.95,126.27 496.95,126.27
             496.95,126.27 496.95,73.24 496.95,73.24 Z
           M 149.70,97.17
           C 148.04,98.83 145.79,99.76 143.45,99.76
             143.45,99.76 46.24,99.76 46.24,99.76
             41.36,99.76 37.40,95.80 37.40,90.92
             37.40,86.04 41.36,82.08 46.24,82.08
             46.24,82.08 143.45,82.08 143.45,82.08
             145.79,82.08 148.04,83.01 149.70,84.67
             151.36,86.33 152.29,88.58 152.29,90.92
             152.29,93.26 151.36,95.51 149.70,97.17 Z
           M 459.01,97.17
           C 457.35,98.83 455.11,99.76 452.76,99.76
             449.19,99.76 445.96,97.60 444.60,94.30
             443.23,91.00 443.98,87.20 446.51,84.67
             449.04,82.14 452.84,81.39 456.14,82.76
             459.45,84.12 461.60,87.35 461.60,90.92
             461.60,93.26 460.67,95.51 459.01,97.17 Z
           M 323.29,234.45
           C 326.79,231.44 332.02,231.64 335.29,234.91
             335.29,234.91 368.81,268.43 368.81,268.43
             368.81,268.43 402.33,234.91 402.33,234.91
             405.78,231.46 411.37,231.46 414.82,234.91
             414.82,234.91 443.93,264.01 443.93,264.01
             443.93,264.01 443.93,188.14 443.93,188.14
             443.93,188.14 267.18,188.14 267.18,188.14
             267.18,188.14 267.18,282.55 267.18,282.55
             267.18,282.55 323.29,234.45 323.29,234.45 Z
           M 346.71,219.07
           C 346.72,213.21 349.05,207.59 353.19,203.45
             357.33,199.31 362.95,196.98 368.81,196.97
             374.67,196.97 380.29,199.30 384.43,203.44
             388.57,207.59 390.90,213.21 390.90,219.07
             390.90,224.93 388.57,230.55 384.43,234.69
             380.29,238.83 374.67,241.16 368.81,241.16
             362.95,241.16 357.33,238.83 353.18,234.69
             349.04,230.55 346.71,224.93 346.71,219.07
             346.71,219.07 346.71,219.07 346.71,219.07 Z
           M 161.12,364.89
           C 161.12,364.89 337.88,364.89 337.88,364.89
             337.88,364.89 337.88,382.57 337.88,382.57
             337.88,382.57 161.12,382.57 161.12,382.57
             161.12,382.57 161.12,364.89 161.12,364.89 Z
           M 443.93,289.02
           C 443.93,289.02 443.93,294.20 443.93,294.20
             443.93,294.20 394.56,294.20 394.56,294.20
             394.56,294.20 381.31,280.94 381.31,280.94
             381.31,280.94 408.57,253.67 408.57,253.67
             408.57,253.67 443.93,289.02 443.93,289.02 Z
           M 328.57,253.20
           C 328.57,253.20 369.57,294.20 369.57,294.20
             369.57,294.20 280.75,294.20 280.75,294.20
             280.75,294.20 328.57,253.20 328.57,253.20 Z
           M 2.05,143.96
           C 2.05,143.96 2.05,426.76 2.05,426.76
             2.05,431.44 3.92,435.93 7.23,439.25
             10.55,442.56 15.04,444.43 19.73,444.43
             19.73,444.43 479.28,444.43 479.28,444.43
             483.96,444.43 488.45,442.56 491.77,439.25
             495.08,435.93 496.95,431.45 496.95,426.76
             496.95,426.76 496.95,143.96 496.95,143.96
             496.95,143.96 2.05,143.96 2.05,143.96 Z
           M 46.24,179.31
           C 46.24,179.31 99.26,179.31 99.26,179.31
             104.14,179.31 108.10,183.27 108.10,188.15
             108.10,193.03 104.14,196.98 99.26,196.98
             99.26,196.98 46.24,196.98 46.24,196.98
             43.89,196.98 41.65,196.05 39.99,194.39
             38.33,192.74 37.40,190.49 37.40,188.15
             37.40,183.27 41.36,179.31 46.24,179.31 Z
           M 46.24,223.50
           C 46.24,223.50 169.96,223.50 169.96,223.50
             174.84,223.50 178.80,227.45 178.80,232.33
             178.80,237.21 174.84,241.17 169.96,241.17
             169.96,241.17 46.24,241.17 46.24,241.17
             43.89,241.17 41.65,240.24 39.99,238.58
             38.33,236.93 37.40,234.68 37.40,232.33
             37.40,227.45 41.36,223.50 46.24,223.50 Z
           M 46.24,258.85
           C 46.24,258.85 169.96,258.85 169.96,258.85
             174.84,258.85 178.80,262.80 178.80,267.68
             178.80,272.56 174.84,276.52 169.96,276.52
             169.96,276.52 46.24,276.52 46.24,276.52
             43.89,276.52 41.65,275.59 39.99,273.93
             38.33,272.28 37.40,270.03 37.40,267.68
             37.40,262.80 41.36,258.85 46.24,258.85 Z
           M 37.40,303.03
           C 37.40,298.15 41.36,294.20 46.24,294.20
             46.24,294.20 169.96,294.20 169.96,294.20
             174.84,294.20 178.80,298.15 178.80,303.03
             178.80,307.91 174.84,311.87 169.96,311.87
             169.96,311.87 46.24,311.87 46.24,311.87
             41.36,311.87 37.40,307.91 37.40,303.03 Z
           M 355.55,391.41
           C 355.55,393.75 354.62,396.00 352.96,397.66
             351.30,399.31 349.06,400.25 346.71,400.25
             346.71,400.25 152.29,400.25 152.29,400.25
             149.94,400.25 147.70,399.31 146.04,397.66
             144.38,396.00 143.45,393.75 143.45,391.41
             143.45,391.41 143.45,356.06 143.45,356.06
             143.45,351.18 147.41,347.22 152.29,347.22
             152.29,347.22 346.71,347.22 346.71,347.22
             349.06,347.22 351.30,348.15 352.96,349.81
             354.62,351.47 355.55,353.71 355.55,356.06
             355.55,356.06 355.55,391.41 355.55,391.41 Z
           M 461.60,299.53
           C 461.59,306.34 456.08,311.86 449.27,311.87
             449.27,311.87 261.83,311.87 261.83,311.87
             255.02,311.86 249.51,306.34 249.50,299.53
             249.50,299.53 249.50,182.80 249.50,182.80
             249.51,175.99 255.02,170.47 261.83,170.47
             261.83,170.47 449.27,170.47 449.27,170.47
             456.08,170.47 461.59,175.99 461.60,182.80
             461.60,182.80 461.60,299.53 461.60,299.53 Z" />
</svg>
