<svg role="img" viewBox="0 0 500 500" xmlns="http://www.w3.org/2000/svg"><title>Research</title>
  <path d="M 208.07,33.56
           C 251.94,33.58 294.19,50.12 326.40,79.90
             358.61,109.67 378.43,150.49 381.89,194.23
             385.36,237.96 372.22,281.39 345.09,315.86
             317.97,350.34 278.85,373.33 235.53,380.25
             192.22,387.18 147.88,377.53 111.36,353.22
             74.84,328.92 48.81,291.75 38.48,249.12
             28.14,206.49 34.24,161.53 55.57,123.19
             76.89,84.86 111.88,55.97 153.56,42.28
             157.91,40.84 162.61,43.21 164.05,47.57
             165.48,51.92 163.11,56.62 158.76,58.06
             121.07,70.44 89.43,96.57 70.14,131.24
             50.86,165.90 45.34,206.56 54.70,245.11
             64.05,283.67 87.58,317.28 120.61,339.26
             153.63,361.24 193.73,369.96 232.90,363.70
             272.07,357.44 307.45,336.65 331.98,305.47
             356.50,274.30 368.39,235.02 365.26,195.48
             362.12,155.93 344.21,119.02 315.08,92.09
             285.95,65.16 247.74,50.19 208.07,50.18
             203.49,50.18 199.77,46.46 199.77,41.87
             199.77,37.28 203.49,33.56 208.07,33.56
             208.07,33.56 208.07,33.56 208.07,33.56 Z
           M 487.88,440.91
           C 494.46,447.06 498.26,455.63 498.41,464.63
             498.55,473.64 495.04,482.33 488.66,488.69
             482.28,495.06 473.59,498.56 464.58,498.40
             455.57,498.23 447.01,494.41 440.87,487.82
             440.87,487.82 328.27,375.22 328.27,375.22
             285.88,405.81 233.53,419.32 181.63,413.05
             129.73,406.79 82.09,381.20 48.21,341.40
             14.32,301.60 -3.34,250.49 -1.25,198.25
             0.84,146.02 22.52,96.49 59.49,59.52
             96.45,22.55 145.98,0.86 198.21,-1.24
             250.45,-3.34 301.56,14.31 341.37,48.19
             381.18,82.07 406.77,129.70 413.04,181.60
             419.32,233.50 405.82,285.86 375.24,328.25
             375.24,328.25 428.69,381.71 428.69,381.71
             428.69,381.71 487.88,440.91 487.88,440.91 Z
           M 15.75,206.80
           C 15.80,257.45 35.95,306.02 71.77,341.83
             107.58,377.65 156.15,397.80 206.80,397.86
             257.47,397.86 306.06,377.72 341.89,341.90
             377.72,306.07 397.85,257.47 397.85,206.80
             397.85,156.13 377.72,107.54 341.89,71.71
             306.07,35.88 257.47,15.75 206.80,15.75
             156.13,15.75 107.54,35.88 71.71,71.71
             35.88,107.54 15.75,156.13 15.75,206.80
             15.75,206.80 15.75,206.80 15.75,206.80 Z
           M 341.36,364.80
           C 341.36,364.80 364.07,387.56 364.07,387.56
             364.07,387.56 387.53,364.09 387.53,364.09
             387.53,364.09 364.81,341.37 364.81,341.37
             357.62,349.78 349.78,357.62 341.36,364.80 Z
           M 387.57,411.07
           C 387.57,411.07 411.04,387.60 411.04,387.60
             411.04,387.60 399.28,375.84 399.28,375.84
             399.28,375.84 375.81,399.31 375.81,399.31
             375.81,399.31 387.57,411.07 387.57,411.07 Z
           M 475.98,476.11
           C 479.12,472.99 480.88,468.77 480.90,464.35
             480.91,459.93 479.16,455.70 476.04,452.57
             476.04,452.57 422.77,399.30 422.77,399.30
             422.77,399.30 399.32,422.78 399.32,422.78
             399.32,422.78 452.59,476.09 452.59,476.09
             455.73,479.11 459.92,480.81 464.28,480.82
             468.64,480.83 472.84,479.16 476.00,476.14
             476.00,476.14 476.00,476.15 476.00,476.15
             476.00,476.15 475.98,476.11 475.98,476.11 Z
           M 99.52,141.55
           C 99.49,127.95 106.13,115.20 117.29,107.44
             128.45,99.67 142.71,97.87 155.45,102.62
             168.19,107.37 177.79,118.06 181.14,131.24
             184.49,144.42 181.16,158.40 172.24,168.66
             174.14,169.23 176.00,169.93 177.81,170.74
             185.59,162.69 196.31,158.14 207.50,158.14
             218.70,158.14 229.41,162.69 237.20,170.74
             239.01,169.93 240.87,169.24 242.76,168.66
             235.70,160.62 232.01,150.16 232.47,139.46
             232.93,128.76 237.50,118.66 245.23,111.25
             252.97,103.84 263.26,99.71 273.96,99.71
             284.67,99.71 294.97,103.84 302.69,111.25
             310.43,118.66 315.00,128.76 315.46,139.46
             315.92,150.16 312.23,160.62 305.17,168.66
             315.36,171.79 324.28,178.11 330.62,186.69
             336.97,195.26 340.40,205.64 340.41,216.31
             340.41,216.31 340.41,249.53 340.41,249.53
             340.41,253.94 338.66,258.17 335.54,261.28
             332.43,264.40 328.20,266.15 323.80,266.15
             323.80,266.15 273.21,266.15 273.21,266.15
             273.69,268.89 273.94,271.67 273.96,274.45
             273.96,274.45 273.96,307.68 273.96,307.68
             273.96,312.09 272.21,316.31 269.09,319.43
             265.97,322.54 261.75,324.29 257.34,324.29
             257.34,324.29 157.66,324.29 157.66,324.29
             153.26,324.29 149.03,322.54 145.92,319.43
             142.80,316.31 141.05,312.09 141.05,307.68
             141.05,307.68 141.05,274.45 141.05,274.45
             141.07,271.67 141.32,268.89 141.80,266.15
             141.80,266.15 91.21,266.15 91.21,266.15
             86.80,266.15 82.58,264.40 79.46,261.28
             76.35,258.17 74.60,253.94 74.60,249.53
             74.60,249.53 74.60,216.31 74.60,216.31
             74.61,205.64 78.04,195.26 84.38,186.69
             90.72,178.11 99.65,171.79 109.84,168.66
             103.23,161.17 99.55,151.54 99.52,141.55
             99.52,141.55 99.52,141.55 99.52,141.55 Z
           M 257.34,274.45
           C 257.34,265.64 253.84,257.19 247.61,250.96
             241.38,244.72 232.93,241.22 224.11,241.22
             224.11,241.22 190.89,241.22 190.89,241.22
             182.08,241.22 173.62,244.73 167.39,250.96
             161.16,257.19 157.66,265.64 157.66,274.45
             157.66,274.45 157.66,307.68 157.66,307.68
             157.66,307.68 257.34,307.68 257.34,307.68
             257.34,307.68 257.34,274.45 257.34,274.45 Z
           M 273.95,116.62
           C 267.35,116.62 261.01,119.25 256.33,123.92
             251.66,128.59 249.03,134.93 249.03,141.54
             249.03,148.15 251.66,154.49 256.33,159.16
             261.01,163.83 267.35,166.46 273.95,166.46
             280.56,166.46 286.90,163.83 291.58,159.16
             296.25,154.49 298.87,148.15 298.87,141.54
             298.87,134.93 296.25,128.59 291.58,123.92
             286.90,119.25 280.56,116.62 273.95,116.62
             273.95,116.62 273.95,116.62 273.95,116.62
             273.95,116.62 273.95,116.62 273.95,116.62 Z
           M 257.34,183.07
           C 253.55,183.09 249.79,183.76 246.22,185.06
             248.96,192.03 249.70,199.63 248.37,207.00
             247.04,214.37 243.68,221.23 238.69,226.80
             250.71,230.52 260.88,238.64 267.19,249.53
             267.19,249.53 323.79,249.53 323.79,249.53
             323.79,249.53 323.79,216.30 323.79,216.30
             323.79,207.49 320.29,199.04 314.06,192.81
             307.83,186.57 299.38,183.07 290.57,183.07
             290.57,183.07 257.34,183.07 257.34,183.07
             257.34,183.07 257.34,183.07 257.34,183.07 Z
           M 189.88,182.07
           C 185.21,186.74 182.58,193.08 182.58,199.69
             182.58,206.30 185.21,212.63 189.88,217.31
             194.55,221.98 200.89,224.61 207.50,224.61
             214.11,224.61 220.45,221.98 225.12,217.31
             229.80,212.63 232.42,206.30 232.42,199.69
             232.42,193.08 229.80,186.74 225.12,182.07
             220.45,177.39 214.11,174.77 207.50,174.77
             200.89,174.77 194.55,177.39 189.88,182.07 Z
           M 176.29,226.80
           C 171.29,221.22 167.94,214.37 166.61,207.00
             165.28,199.62 166.03,192.03 168.77,185.06
             165.21,183.76 161.45,183.09 157.66,183.07
             157.66,183.07 124.43,183.07 124.43,183.07
             115.62,183.07 107.17,186.57 100.94,192.81
             94.71,199.04 91.21,207.49 91.21,216.30
             91.21,216.30 91.21,249.53 91.21,249.53
             91.21,249.53 147.77,249.53 147.77,249.53
             154.07,238.64 164.24,230.52 176.27,226.80
             176.27,226.80 176.29,226.80 176.29,226.80 Z
           M 158.67,123.92
           C 154.00,119.25 147.66,116.62 141.05,116.62
             134.44,116.62 128.10,119.25 123.43,123.92
             118.75,128.59 116.13,134.93 116.13,141.54
             116.13,148.15 118.75,154.49 123.43,159.16
             128.10,163.83 134.44,166.46 141.05,166.46
             147.66,166.46 154.00,163.83 158.67,159.16
             163.34,154.49 165.97,148.15 165.97,141.54
             165.97,134.93 163.34,128.59 158.67,123.92 Z" />
</svg>
