<svg role="img" viewBox="0 0 500 500" xmlns="http://www.w3.org/2000/svg"><title>Synthesis</title>
  <path d="M 254.94,289.38
           C 254.94,289.38 390.74,289.38 390.74,289.38
             390.74,289.38 390.74,237.78 390.74,237.78
             390.74,237.78 499.38,237.78 499.38,237.78
             499.38,237.78 499.38,346.42 499.38,346.42
             499.38,346.42 390.74,346.42 390.74,346.42
             390.74,346.42 390.74,300.25 390.74,300.25
             390.74,300.25 254.94,300.25 254.94,300.25
             254.94,300.25 254.94,389.87 254.94,389.87
             254.94,389.87 303.82,389.87 303.82,389.87
             303.82,389.87 303.82,441.48 303.82,441.48
             303.82,441.48 390.74,441.48 390.74,441.48
             390.74,441.48 390.74,389.87 390.74,389.87
             390.74,389.87 499.38,389.87 499.38,389.87
             499.38,389.87 499.38,498.51 499.38,498.51
             499.38,498.51 390.74,498.52 390.74,498.52
             390.74,498.52 390.74,452.34 390.74,452.34
             390.74,452.34 303.82,452.34 303.82,452.34
             303.82,452.34 303.82,498.51 303.82,498.51
             303.82,498.51 195.18,498.51 195.18,498.51
             195.18,498.51 195.18,389.87 195.18,389.87
             195.18,389.87 244.07,389.87 244.07,389.87
             244.07,389.87 244.07,191.61 244.07,191.61
             244.07,191.61 62.10,191.61 62.10,191.61
             62.10,191.61 62.10,389.87 62.10,389.87
             62.10,389.87 108.27,389.87 108.27,389.87
             108.27,389.87 108.27,498.51 108.27,498.51
             108.27,498.51 -0.37,498.51 -0.37,498.51
             -0.37,498.51 -0.37,389.87 -0.37,389.87
             -0.37,389.87 51.23,389.87 51.23,389.87
             51.23,389.87 51.23,191.61 51.23,191.61
             51.23,191.61 -0.37,191.61 -0.37,191.61
             -0.37,191.61 -0.37,1.49 -0.37,1.49
             -0.37,1.49 499.37,1.49 499.37,1.49
             499.37,1.49 499.37,191.61 499.37,191.61
             499.37,191.61 254.93,191.61 254.93,191.61
             254.93,191.61 254.94,289.38 254.94,289.38 Z
           M 97.40,400.74
           C 97.40,400.74 10.49,400.74 10.49,400.74
             10.49,400.74 10.49,487.65 10.49,487.65
             10.49,487.65 97.40,487.65 97.40,487.65
             97.40,487.65 97.40,400.74 97.40,400.74 Z
           M 10.49,180.74
           C 10.49,180.74 488.51,180.74 488.51,180.74
             488.51,180.74 488.51,12.35 488.51,12.35
             488.51,12.35 10.49,12.35 10.49,12.35
             10.49,12.35 10.49,180.74 10.49,180.74 Z
           M 401.60,487.65
           C 401.60,487.65 488.51,487.65 488.51,487.65
             488.51,487.65 488.51,400.74 488.51,400.74
             488.51,400.74 401.60,400.74 401.60,400.74
             401.60,400.74 401.60,487.65 401.60,487.65 Z
           M 292.96,400.74
           C 292.96,400.74 206.04,400.74 206.04,400.74
             206.04,400.74 206.04,487.65 206.04,487.65
             206.04,487.65 292.96,487.65 292.96,487.65
             292.96,487.65 292.96,400.74 292.96,400.74 Z
           M 401.60,335.55
           C 401.60,335.55 488.51,335.56 488.51,335.56
             488.51,335.56 488.51,248.64 488.51,248.64
             488.51,248.64 401.60,248.64 401.60,248.64
             401.60,248.64 401.60,335.55 401.60,335.55 Z
           M 85.32,129.99
           C 85.32,129.99 416.68,129.99 416.68,129.99
             416.68,129.99 416.68,119.01 416.68,119.01
             416.68,119.01 85.32,119.01 85.32,119.01
             85.32,119.01 85.32,129.99 85.32,129.99 Z
           M 85.32,69.99
           C 85.32,69.99 416.68,69.99 416.68,69.99
             416.68,69.99 416.68,59.01 416.68,59.01
             416.68,59.01 85.32,59.01 85.32,59.01
             85.32,59.01 85.32,69.99 85.32,69.99 Z" />
</svg>
