<svg role="img" viewBox="0 0 500 500" xmlns="http://www.w3.org/2000/svg"><title>User Centricity</title>
  <path d="M 165.84,112.26
           C 165.84,112.26 148.13,122.49 148.13,122.49
             148.13,122.49 193.44,152.40 193.44,152.40
             193.44,152.40 190.19,98.20 190.19,98.20
             190.19,98.20 172.48,108.43 172.48,108.43
             172.48,108.43 154.92,78.02 154.92,78.02
             165.26,69.90 168.32,55.22 161.56,43.51
             154.15,30.67 137.74,26.28 124.90,33.69
             112.06,41.10 107.67,57.51 115.08,70.35
             121.84,82.05 136.09,86.74 148.28,81.85
             148.28,81.85 165.84,112.26 165.84,112.26 Z
           M 108.43,172.48
           C 108.43,172.48 98.20,190.19 98.20,190.19
             98.20,190.19 152.40,193.44 152.40,193.44
             152.40,193.44 122.49,148.13 122.49,148.13
             122.49,148.13 112.26,165.84 112.26,165.84
             112.26,165.84 81.85,148.28 81.85,148.28
             86.74,136.09 82.06,121.84 70.35,115.08
             57.51,107.67 41.10,112.07 33.69,124.90
             26.28,137.74 30.68,154.15 43.51,161.56
             55.22,168.32 69.90,165.26 78.02,154.92
             78.02,154.92 108.43,172.48 108.43,172.48 Z
           M 88.82,253.34
           C 88.82,253.34 88.82,273.78 88.82,273.78
             88.82,273.78 137.38,249.50 137.38,249.50
             137.38,249.50 88.82,225.22 88.82,225.22
             88.82,225.22 88.82,245.67 88.82,245.67
             88.82,245.67 53.70,245.67 53.70,245.67
             51.84,232.66 40.66,222.67 27.14,222.67
             12.32,222.67 0.30,234.68 0.30,249.50
             0.30,264.32 12.32,276.34 27.14,276.34
             40.66,276.34 51.84,266.34 53.70,253.34
             53.70,253.34 88.82,253.34 88.82,253.34 Z
           M 112.26,333.16
           C 112.26,333.16 122.49,350.87 122.49,350.87
             122.49,350.87 152.40,305.56 152.40,305.56
             152.40,305.56 98.20,308.81 98.20,308.81
             98.20,308.81 108.43,326.52 108.43,326.52
             108.43,326.52 78.02,344.08 78.02,344.08
             69.91,333.75 55.22,330.68 43.51,337.44
             30.68,344.85 26.28,361.27 33.69,374.10
             41.10,386.94 57.51,391.33 70.35,383.92
             82.06,377.16 86.74,362.91 81.85,350.72
             81.85,350.72 112.26,333.16 112.26,333.16 Z
           M 172.48,390.57
           C 172.48,390.57 190.19,400.80 190.19,400.80
             190.19,400.80 193.44,346.60 193.44,346.60
             193.44,346.60 148.13,376.51 148.13,376.51
             148.13,376.51 165.84,386.74 165.84,386.74
             165.84,386.74 148.28,417.15 148.28,417.15
             136.09,412.26 121.84,416.95 115.08,428.65
             107.67,441.49 112.07,457.90 124.90,465.31
             137.74,472.72 154.15,468.33 161.56,455.49
             168.32,443.78 165.26,429.10 154.92,420.98
             154.92,420.98 172.48,390.57 172.48,390.57 Z
           M 253.34,410.18
           C 253.34,410.18 273.78,410.18 273.78,410.18
             273.78,410.18 249.50,361.62 249.50,361.62
             249.50,361.62 225.22,410.18 225.22,410.18
             225.22,410.18 245.67,410.18 245.67,410.18
             245.67,410.18 245.67,445.30 245.67,445.30
             232.66,447.16 222.67,458.34 222.67,471.86
             222.67,486.69 234.68,498.70 249.50,498.70
             264.32,498.70 276.34,486.69 276.34,471.86
             276.34,458.34 266.34,447.16 253.34,445.30
             253.34,445.30 253.34,410.18 253.34,410.18 Z
           M 333.16,386.74
           C 333.16,386.74 350.87,376.51 350.87,376.51
             350.87,376.51 305.56,346.60 305.56,346.60
             305.56,346.60 308.82,400.80 308.82,400.80
             308.82,400.80 326.52,390.57 326.52,390.57
             326.52,390.57 344.08,420.98 344.08,420.98
             333.75,429.10 330.68,443.78 337.44,455.49
             344.85,468.33 361.27,472.72 374.10,465.31
             386.94,457.90 391.33,441.49 383.92,428.65
             377.16,416.95 362.91,412.26 350.72,417.15
             350.72,417.15 333.16,386.74 333.16,386.74 Z
           M 390.57,326.52
           C 390.57,326.52 400.80,308.81 400.80,308.81
             400.80,308.81 346.60,305.56 346.60,305.56
             346.60,305.56 376.51,350.87 376.51,350.87
             376.51,350.87 386.74,333.16 386.74,333.16
             386.74,333.16 417.15,350.72 417.15,350.72
             412.26,362.91 416.95,377.16 428.66,383.92
             441.49,391.33 457.90,386.93 465.32,374.10
             472.72,361.26 468.33,344.85 455.49,337.44
             443.78,330.68 429.10,333.74 420.98,344.08
             420.98,344.08 390.57,326.52 390.57,326.52 Z
           M 410.18,245.66
           C 410.18,245.66 410.18,225.22 410.18,225.22
             410.18,225.22 361.62,249.50 361.62,249.50
             361.62,249.50 410.18,273.78 410.18,273.78
             410.18,273.78 410.18,253.33 410.18,253.33
             410.18,253.33 445.30,253.33 445.30,253.33
             447.16,266.34 458.35,276.33 471.87,276.33
             486.69,276.33 498.70,264.32 498.70,249.50
             498.70,234.68 486.69,222.66 471.87,222.66
             458.34,222.66 447.16,232.66 445.30,245.66
             445.30,245.66 410.18,245.66 410.18,245.66 Z
           M 386.74,165.84
           C 386.74,165.84 376.51,148.13 376.51,148.13
             376.51,148.13 346.60,193.44 346.60,193.44
             346.60,193.44 400.80,190.19 400.80,190.19
             400.80,190.19 390.57,172.48 390.57,172.48
             390.57,172.48 420.98,154.92 420.98,154.92
             429.10,165.25 443.78,168.32 455.49,161.56
             468.33,154.15 472.72,137.73 465.32,124.90
             457.90,112.06 441.49,107.67 428.66,115.08
             416.95,121.84 412.26,136.09 417.15,148.28
             417.15,148.28 386.74,165.84 386.74,165.84 Z
           M 326.52,108.43
           C 326.52,108.43 308.81,98.20 308.81,98.20
             308.81,98.20 305.56,152.40 305.56,152.40
             305.56,152.40 350.87,122.49 350.87,122.49
             350.87,122.49 333.16,112.26 333.16,112.26
             333.16,112.26 350.72,81.85 350.72,81.85
             362.91,86.74 377.16,82.05 383.92,70.35
             391.33,57.51 386.94,41.10 374.10,33.69
             361.27,26.28 344.85,30.67 337.44,43.51
             330.68,55.22 333.74,69.90 344.08,78.02
             344.08,78.02 326.52,108.43 326.52,108.43 Z
           M 245.66,88.82
           C 245.66,88.82 225.22,88.82 225.22,88.82
             225.22,88.82 249.50,137.38 249.50,137.38
             249.50,137.38 273.78,88.82 273.78,88.82
             273.78,88.82 253.33,88.82 253.33,88.82
             253.33,88.82 253.33,53.70 253.33,53.70
             266.34,51.84 276.33,40.66 276.33,27.14
             276.33,12.32 264.32,0.30 249.50,0.30
             234.68,0.30 222.66,12.32 222.66,27.14
             222.66,40.66 232.66,51.84 245.66,53.70
             245.66,53.70 245.66,88.82 245.66,88.82 Z
           M 286.19,274.44
           C 276.95,284.30 264.82,290.30 251.38,290.30
             237.30,290.30 224.66,283.72 215.28,273.02
             199.50,281.59 189.43,295.86 189.43,311.86
             189.43,313.95 189.61,316.02 189.94,318.07
             189.94,318.07 190.65,322.35 190.65,322.35
             190.65,322.35 308.34,322.35 308.34,322.35
             308.34,322.35 309.05,318.07 309.05,318.07
             309.39,316.02 309.56,313.95 309.56,311.86
             309.56,296.75 300.57,283.14 286.19,274.44
             286.19,274.44 286.19,274.44 286.19,274.44 Z
           M 294.01,225.81
           C 294.01,195.64 274.77,171.54 251.38,171.54
             227.99,171.54 208.76,195.64 208.76,225.81
             208.76,255.99 227.99,280.08 251.38,280.08
             274.77,280.08 294.01,255.99 294.01,225.81 Z" />
</svg>
